<?xml version="1.0" standalone="no"?>
<!DOCTYPE svg PUBLIC "-//W3C//DTD SVG 20010904//EN"
 "http://www.w3.org/TR/2001/REC-SVG-20010904/DTD/svg10.dtd">
<svg version="1.0" xmlns="http://www.w3.org/2000/svg"
 width="225.000000pt" height="225.000000pt" viewBox="0 0 225.000000 225.000000"
 preserveAspectRatio="xMidYMid meet">
<metadata>
Created by potrace 1.11, written by Peter Selinger 2001-2013
</metadata>
<g transform="translate(0.000000,225.000000) scale(0.100000,-0.100000)"
fill="#000000" stroke="none">
<path d="M1238 1741 c-25 -16 -48 -35 -50 -42 -3 -10 -26 -10 -120 1 -103 12
-233 10 -404 -5 -54 -4 -184 -85 -245 -152 -37 -40 -87 -126 -111 -191 -19
-51 -20 -69 -14 -198 6 -134 5 -145 -19 -215 -59 -170 -58 -164 -41 -222 9
-33 28 -64 48 -84 46 -45 188 -93 188 -64 0 5 12 11 27 13 56 6 30 78 -28 78
-17 0 -34 8 -44 23 -15 21 -14 23 17 47 66 51 129 114 134 137 4 12 13 23 21
23 18 0 74 -122 78 -170 1 -20 5 -45 9 -57 11 -35 74 -53 185 -53 82 0 101 3
114 18 10 10 17 24 17 30 0 20 -31 42 -59 42 -15 0 -35 6 -45 13 -18 13 -18
17 -2 85 9 39 16 98 16 131 0 46 4 61 14 61 10 0 18 -23 27 -72 27 -157 83
-271 163 -331 30 -23 43 -26 127 -27 110 -2 153 8 157 36 5 33 -32 57 -94 62
-47 4 -57 8 -65 29 -29 76 20 255 85 310 71 61 78 65 100 59 42 -10 91 -51 94
-77 7 -61 137 -147 251 -167 41 -7 46 -11 53 -42 5 -19 13 -43 19 -54 8 -14 8
-21 -3 -28 -10 -7 -10 -10 5 -19 9 -5 17 -19 17 -29 0 -17 7 -20 40 -20 31 0
43 5 56 26 15 22 16 37 6 125 -10 93 -13 104 -59 175 -26 42 -72 104 -101 136
-59 66 -66 101 -22 106 65 6 150 27 150 36 0 6 9 17 20 24 28 17 25 46 -10 85
-24 28 -30 44 -30 83 0 52 -26 120 -53 143 -11 9 -17 29 -17 56 0 52 -7 59
-38 39 -30 -20 -117 -13 -237 18 -95 25 -122 37 -154 72 -36 38 -110 37 -173
-3z"/>
</g>
</svg>
